<?xml version="1.0" standalone="no"?>
<!DOCTYPE svg PUBLIC "-//W3C//DTD SVG 20010904//EN"
 "http://www.w3.org/TR/2001/REC-SVG-20010904/DTD/svg10.dtd">
<svg version="1.0" xmlns="http://www.w3.org/2000/svg"
 width="74.000000pt" height="30.000000pt" viewBox="0 0 74.000000 30.000000"
 preserveAspectRatio="xMidYMid meet">
<metadata>
Created by potrace 1.16, written by Peter Selinger 2001-2019
</metadata>
<g transform="translate(0.000000,30.000000) scale(0.008585,-0.007481)"
fill="#000000" stroke="none">
<path d="M3560 3580 c-365 -93 -578 -313 -661 -683 -31 -141 -42 -483 -36
-1152 4 -478 8 -596 21 -670 49 -266 140 -436 302 -565 142 -113 337 -183 559
-200 156 -12 578 -12 725 0 388 32 653 204 785 508 97 223 109 376 102 1287
-4 541 -7 643 -21 725 -46 251 -155 449 -320 581 -76 62 -148 99 -276 144
-134 46 -239 54 -715 54 l-350 0 -115 -29z m985 -350 c134 -24 247 -85 320
-171 41 -50 94 -166 105 -235 13 -75 13 -1577 0 -1699 -14 -140 -31 -182 -106
-266 -140 -156 -173 -167 -514 -179 -140 -5 -365 -5 -500 -1 -209 7 -253 12
-297 29 -176 68 -269 187 -304 388 -32 188 -28 1587 5 1739 18 80 71 193 115
246 78 94 206 147 381 159 151 11 718 4 795 -10z"/>
<path d="M3830 3020 c-119 -13 -198 -49 -272 -126 -48 -50 -74 -110 -88 -204
-15 -102 -30 -1062 -19 -1280 8 -186 24 -268 64 -336 33 -57 91 -110 151 -140
67 -33 200 -44 539 -44 l260 0 71 39 c118 66 173 135 211 264 13 43 17 143 20
607 2 305 0 641 -5 746 -9 188 -9 191 -42 252 -40 76 -122 155 -195 188 -47
22 -78 27 -208 34 -177 11 -380 10 -487 0z m518 -390 c12 -8 26 -26 30 -40 9
-34 9 -1238 -1 -1272 -12 -43 -54 -50 -299 -46 -161 2 -220 6 -230 16 -10 10
-14 134 -16 590 -4 586 0 707 22 737 20 28 72 34 276 32 154 -2 200 -5 218
-17z"/>
<path d="M5690 3430 l0 -180 808 0 c444 0 1033 -3 1310 -7 l502 -6 0 186 0
187 -1310 0 -1310 0 0 -180z"/>
<path d="M330 3415 l0 -185 650 0 650 0 73 -36 c173 -87 318 -217 378 -339
l33 -68 4 -206 c7 -339 -7 -384 -167 -553 l-83 -88 90 -94 c61 -65 101 -116
123 -161 32 -66 32 -68 37 -243 6 -237 -4 -302 -65 -422 -67 -133 -172 -238
-298 -300 l-90 -44 -666 -4 -666 -5 -7 -174 c-4 -96 -4 -178 -1 -182 2 -5 310
-6 682 -4 l678 6 136 68 c300 152 485 329 600 573 57 123 79 226 79 378 0 214
-18 307 -92 468 -36 78 -39 90 -35 155 3 54 13 92 45 165 70 164 87 243 87
415 0 127 -4 162 -23 230 -86 297 -352 617 -617 745 -55 26 -122 53 -148 59
-97 23 -304 31 -839 31 l-548 0 0 -185z"/>
<path d="M5690 2841 l0 -191 408 -2 407 -3 3 -1171 2 -1172 163 -7 c89 -4 173
-6 187 -4 l25 4 0 1357 c0 746 -2 1358 -5 1361 -3 3 -272 8 -597 12 l-593 8 0
-192z"/>
<path d="M7110 1662 l0 -1372 178 0 179 0 6 122 c4 66 7 595 7 1173 l0 1052
46 7 c26 3 210 6 410 6 l364 0 0 185 0 185 -263 0 c-145 0 -413 3 -595 7
l-332 6 0 -1371z"/>
<path d="M330 2535 l0 -485 589 0 c666 0 612 -6 749 83 175 114 269 280 242
427 -12 68 -50 165 -87 223 -45 71 -133 151 -206 187 l-67 33 -313 8 c-171 4
-446 8 -609 8 l-298 1 0 -485z m1112 90 c99 -7 98 -7 98 -84 0 -36 -5 -73 -10
-81 -8 -13 -67 -15 -415 -18 l-405 -3 0 101 0 101 333 -6 c182 -3 362 -8 399
-10z"/>
<path d="M330 1365 l0 -475 608 0 607 0 85 48 c165 92 256 217 281 383 10 70
9 80 -12 130 -64 151 -194 310 -286 351 -43 19 -75 22 -348 29 -165 4 -443 8
-617 8 l-318 1 0 -475z m1168 85 c37 -14 44 -34 40 -110 -5 -84 6 -81 -444
-88 l-384 -5 0 113 0 113 378 -6 c261 -3 387 -8 410 -17z"/>
</g>
</svg>
